<svg xmlns="http://www.w3.org/2000/svg" viewBox="0 0 87.65 108.38"><defs><style>.cls-1{fill:#272828;}.cls-2{fill:#fff;}.cls-3{fill:#2e4860;}.cls-4{fill:#0f110f;}</style></defs><title>black</title><g id="Слой_2" data-name="Слой 2"><g id="Layer_1" data-name="Layer 1"><path class="cls-1" d="M62.12,102.08c3.74,0,6.77,2.25,6.77,5v1.28H53.6v-6.09Z"/><path class="cls-1" d="M31.52,102.08c-3.74,0-6.78,2.25-6.78,5v1.28H40v-6.09Z"/><path class="cls-1" d="M69.8,7.85A3.32,3.32,0,0,0,66.27,7a9.53,9.53,0,0,0-3.23,2,14.2,14.2,0,0,0,2.61-3,5,5,0,0,0,.67-3.8A3,3,0,0,0,63.44,0a4.07,4.07,0,0,0-2.87,1.91,10.88,10.88,0,0,0-1.82,3.86,6.19,6.19,0,0,0,0-3.39C58.2,1,56.55,0,55.29.71,54.21,1.32,54,2.78,54.07,4a14.43,14.43,0,0,0,2.59,7.35l8.1,3.49a6.6,6.6,0,0,0,4.77-2.78C70.39,10.83,70.75,9,69.8,7.85Z"/><path class="cls-1" d="M86.46,86.48l-6-.46c.66-8.6-1.8-15.24-7.31-19.73a22,22,0,0,0-8.44-4.23l1.15-5.92a27.77,27.77,0,0,1,11.09,5.48C81.85,65.61,87.49,73.17,86.46,86.48Z"/><path class="cls-1" d="M2.28,37.67l6,.48C7.63,47,10.09,53.86,15.6,58.48A21.7,21.7,0,0,0,24,62.85L22.89,69A27.32,27.32,0,0,1,11.8,63.31C6.89,59.19,1.25,51.4,2.28,37.67Z"/><path class="cls-1" d="M73,50.14S69.48,9.57,56.74,9.57C44.63,9.57,28,50.14,28,50.14S59.07,60.36,73,50.14Z"/><path class="cls-2" d="M57.35,45.68c-3.66,0-4.78,6.85-4.78,6.85s-.34-7.38-4.33-7.78-6.71,6.44-6.71,6.44-.54-7-2.93-7.63-6.86,5.32-6.86,5.32,1.89-8.78-.93-10.11S24,47,24,47C36.76,54.57,49.32,59,61.36,54.19,61.36,54.19,61,45.68,57.35,45.68Z"/><path class="cls-3" d="M73,49.78c-18.7,5-35.28,3.47-49-6.82-2.17,4.8-4.17,9.48-6,13.94a27.44,27.44,0,0,0,25.4,37.83H48A27.6,27.6,0,0,0,75.2,62.26Z"/><circle class="cls-2" cx="36.75" cy="26.64" r="7.67"/><path class="cls-4" d="M36.75,35.37a8.74,8.74,0,1,1,8.73-8.73A8.75,8.75,0,0,1,36.75,35.37Zm0-15.34a6.61,6.61,0,1,0,6.6,6.61A6.61,6.61,0,0,0,36.75,20Z"/><circle class="cls-2" cx="58.56" cy="28.89" r="8.57"/><path class="cls-4" d="M58.56,38.53a9.64,9.64,0,1,1,9.63-9.64A9.66,9.66,0,0,1,58.56,38.53Zm0-17.15a7.51,7.51,0,1,0,7.51,7.51A7.52,7.52,0,0,0,58.56,21.38Z"/><circle class="cls-3" cx="36.75" cy="26.64" r="3.27"/><circle class="cls-3" cx="58.56" cy="28.91" r="3.27"/><path class="cls-1" d="M44.37,108.38H29.08V107.1c0-2.77,3-5,6.78-5h0V89.28h8.51Z"/><path class="cls-1" d="M64.44,108.38H49V87.73h8.52v14.35h.1c3.74,0,6.78,2.25,6.78,5Z"/><path class="cls-1" d="M18.88,79.73a27.3,27.3,0,0,0,24.46,15H48a27.58,27.58,0,0,0,24.57-15C55.45,85.33,37.48,84.89,18.88,79.73Z"/><path class="cls-1" d="M15.92,68.85c19.64,4.83,39.5,5.59,59.67,0a27.8,27.8,0,0,0-.39-6.59l-.79-4.38c-19.71,8.76-37.86,6.13-56.85,0A27.18,27.18,0,0,0,15.92,68.85Z"/><path class="cls-4" d="M45.1,16.62A1.61,1.61,0,0,1,43.8,16a6.56,6.56,0,0,0-8.08-1.89,1.6,1.6,0,0,1-1.5-2.82A9.76,9.76,0,0,1,46.4,14.1,1.59,1.59,0,0,1,46,16.33,1.58,1.58,0,0,1,45.1,16.62Z"/><path class="cls-4" d="M64.16,17.15a1.58,1.58,0,0,1-1-.39,7.53,7.53,0,0,0-8.86-.47,1.6,1.6,0,0,1-1.82-2.63,10.71,10.71,0,0,1,12.77.69,1.6,1.6,0,0,1,.16,2.25A1.61,1.61,0,0,1,64.16,17.15Z"/><path class="cls-1" d="M7.41,40.71a1.07,1.07,0,0,1-.53-2l3.85-2.23a1.06,1.06,0,0,1,1.07,1.84L7.94,40.56A1,1,0,0,1,7.41,40.71Z"/><path class="cls-1" d="M7.4,40.93h0a1.07,1.07,0,0,1-1.06-1.07l.06-8.77A1.07,1.07,0,0,1,7.47,30h0A1.06,1.06,0,0,1,8.53,31.1l-.06,8.77A1.07,1.07,0,0,1,7.4,40.93Z"/><path class="cls-1" d="M5.1,40.83a1.07,1.07,0,0,1-1-.95L3,30.6A1.07,1.07,0,0,1,4,29.43a1.08,1.08,0,0,1,1.18.94l1,9.28a1.05,1.05,0,0,1-.94,1.17Z"/><path class="cls-1" d="M3.11,41.32a1.07,1.07,0,0,1-1-.72l-2-6a1.06,1.06,0,0,1,.66-1.35h0a1.06,1.06,0,0,1,1.35.66l2.05,6a1.06,1.06,0,0,1-.66,1.35A1.12,1.12,0,0,1,3.11,41.32Z"/><path class="cls-1" d="M78.91,91.18a1,1,0,0,1-.24,0,1.06,1.06,0,0,1-.8-1.27,13.22,13.22,0,0,1,2.6-5.43,1.07,1.07,0,1,1,1.66,1.34,11.19,11.19,0,0,0-2.19,4.55A1.05,1.05,0,0,1,78.91,91.18Z"/><path class="cls-1" d="M81.35,94.78h0a1.06,1.06,0,0,1-1-1.12l.4-8a1.07,1.07,0,0,1,2.13.11l-.4,8A1.07,1.07,0,0,1,81.35,94.78Z"/><path class="cls-1" d="M84.14,94.78a1.08,1.08,0,0,1-1.07-1l-.47-8.58a1.07,1.07,0,0,1,2.13-.12l.47,8.59a1.07,1.07,0,0,1-1,1.12Z"/><path class="cls-1" d="M86.58,93.38a1.07,1.07,0,0,1-1.06-1,19.65,19.65,0,0,0-.45-3.23,22.61,22.61,0,0,1-.5-3.55,1.06,1.06,0,0,1,1-1.11,1.07,1.07,0,0,1,1.11,1,20.62,20.62,0,0,0,.45,3.23,22.75,22.75,0,0,1,.5,3.56,1.07,1.07,0,0,1-1,1.11Z"/><path class="cls-1" d="M38.31,102.08a4.93,4.93,0,0,0-4.83,5v1.28H44.37v-6.09Z"/><path class="cls-1" d="M55.33,102.08a4.93,4.93,0,0,1,4.83,5v1.28H49.27v-6.09Z"/></g></g></svg>