<svg xmlns="http://www.w3.org/2000/svg" viewBox="0 0 108.42 116.43"><defs><style>.cls-1{fill:#005aa7;}.cls-2{fill:#1d3d91;}.cls-3{fill:#000f13;}.cls-4{fill:#fff;}</style></defs><title>blue</title><g id="Слой_2" data-name="Слой 2"><g id="Layer_1" data-name="Layer 1"><path class="cls-1" d="M39.93,93.4H31.51c-.38,0-.7.44-.7,1v9.29H30.7c-2.48,0-4.5,2.86-4.5,6.35h0c0,3.5-.46,6.41,2,6.41H36c2.38,0,4.43-2.69,4.58-6,0-.06,0-.11,0-.16V110h0V94.38C40.62,93.84,40.31,93.4,39.93,93.4Z"/><path class="cls-2" d="M26.15,106c-3.06,0-7.5,4.83-7.51,10.42H29.76C29.75,110.84,29.21,106,26.15,106Z"/><path class="cls-3" d="M20.76,116.43a8.19,8.19,0,0,0,0-.87c0-1.91-.56-3.46-1.25-3.52a11.48,11.48,0,0,0-.91,4.39Z"/><path class="cls-1" d="M30.79,103.63c-3.76,0-9.21,5.93-9.23,12.8H35.23C35.21,109.56,34.56,103.63,30.79,103.63Z"/><path class="cls-3" d="M24.17,116.43c0-.34,0-.7,0-1.07,0-2.34-.69-4.25-1.54-4.32a14,14,0,0,0-1.12,5.39Z"/><path class="cls-1" d="M56.53,93.4H65c.38,0,.69.44.69,1v9.29h.12c2.47,0,4.49,2.86,4.49,6.35h0c0,3.5.46,6.41-2,6.41H60.42c-2.37,0-4.42-2.69-4.57-6a.92.92,0,0,1,0-.16V110h0V94.38C55.84,93.84,56.15,93.4,56.53,93.4Z"/><path class="cls-2" d="M70.3,106c3.07,0,7.5,4.83,7.52,10.42H66.69C66.71,110.84,67.24,106,70.3,106Z"/><path class="cls-3" d="M75.69,116.43a8.19,8.19,0,0,1,0-.87c0-1.91.56-3.46,1.26-3.52a11.68,11.68,0,0,1,.91,4.39Z"/><path class="cls-1" d="M65.66,103.63c3.77,0,9.22,5.93,9.24,12.8H61.22C61.24,109.56,61.9,103.63,65.66,103.63Z"/><path class="cls-3" d="M72.28,116.43c0-.34,0-.7,0-1.07,0-2.34.69-4.25,1.55-4.32a14.19,14.19,0,0,1,1.12,5.39Z"/><path class="cls-1" d="M25.41,57.08l.17,0,.48,0a5.74,5.74,0,0,1,2.45,11,5.41,5.41,0,0,1-1.39.39H27C19.81,70.7,14.2,78.28,11.65,85.16l-.09.26a3.85,3.85,0,0,1-3.37,3.35,3.88,3.88,0,0,1-2.76-.67,3.76,3.76,0,0,1-1.57-2.5.07.07,0,0,1,0,0v-.06a3.33,3.33,0,0,1,0-.63C3.3,72.36,12.43,58.77,25,57.12l.39,0"/><ellipse class="cls-1" cx="3.84" cy="85.57" rx="4.46" ry="2.01" transform="translate(-48.13 17.48) rotate(-34.79)"/><ellipse class="cls-1" cx="5.15" cy="88.48" rx="4.46" ry="2.01" transform="translate(-72.8 46.29) rotate(-58.24)"/><ellipse class="cls-1" cx="7.49" cy="89.54" rx="4.45" ry="2.01" transform="translate(-82.33 87.04) rotate(-83.62)"/><ellipse class="cls-1" cx="11.45" cy="88.71" rx="2.01" ry="4.45" transform="translate(-31.83 10.43) rotate(-21.58)"/><ellipse class="cls-1" cx="11.91" cy="83.93" rx="2.01" ry="4.46" transform="translate(-72.27 73.95) rotate(-75.16)"/><path class="cls-1" d="M75.18,69.57l-.17,0-.47-.12c-2.72-.82-4.37-3.88-3.74-7.08A6.19,6.19,0,0,1,76,57.24a5,5,0,0,1,1.44.06h.08c7.62,0,15.49-6,20.23-12.31l.18-.23a4.35,4.35,0,0,1,1-1.42,3.76,3.76,0,0,1,3.28-.94A3.71,3.71,0,0,1,104.58,44a4.26,4.26,0,0,1,.64,3.11.13.13,0,0,1,0,.06v0s0,0,0,0a4.58,4.58,0,0,1-.19.66c-3.76,13.14-17,24.2-29.45,21.74l-.38-.09"/><path class="cls-2" d="M86.43,81a21,21,0,0,0-3.28-10.52,3,3,0,0,0,1.54-.4,3.4,3.4,0,0,0,1.51-2.47,8.15,8.15,0,0,0-.27-3,26.52,26.52,0,0,0-2-5.57c-.23-.46-1.27-1.77-1-2.24.15-.26.68-.26.92-.4a2,2,0,0,0,.74-.74c.63-1-.21-3.48-.42-4.54A31.64,31.64,0,0,0,82.7,46a1.17,1.17,0,0,0,0-.11,3.32,3.32,0,0,0,1.63-1,3.24,3.24,0,0,0,.33-4.38c-.44-.7-.91-1.39-1.32-2.1A.88.88,0,0,0,84,38c.75-1.5-.14-3.41-.76-4.8a18.4,18.4,0,0,0-4-5.37,3.93,3.93,0,0,0,1.11-1.31c1.38-2.2-1.06-5-2.44-6.54a3.1,3.1,0,0,0,.49-4c-1.66-2.48-3.92-3.19-6.39-4.6-.58-.33-1.18-.68-1.79-1a.83.83,0,0,0,.16-.21,1.84,1.84,0,0,0-.39-2,5.56,5.56,0,0,0-3.74-1.7c.42-.28.89-.5,1.3-.79.67-.49,1.21-1.43.75-2.12s-1.3-.62-2-.53a30.27,30.27,0,0,0-4.13.86A26.37,26.37,0,0,0,48.23,0,25.7,25.7,0,0,0,33.92,4.08a48.79,48.79,0,0,0-6.51.34,2.43,2.43,0,0,0-1.16.35.89.89,0,0,0-.36,1.06,1.34,1.34,0,0,0,1,.52l3.13.48A20,20,0,0,0,22.51,10a6,6,0,0,0-2.39,2.65,2.56,2.56,0,0,0,1,3.16,3.57,3.57,0,0,0,2.1.11l.37-.08q-1.08,2-2,4.23l-.25.2C17.73,21.93,14.63,27,14.87,31a2,2,0,0,0,.47,1.21c.93,1,3.19.45,2.42,1.27A29.52,29.52,0,0,0,13,40.72a19.43,19.43,0,0,0-1.24,5.43c-.1,1,.41,2.62,1.79,1.73-1.44,3.32-1.66,6.34-.46,6.91a1.09,1.09,0,0,0,.74.07c-.42.09-1.21,2.7-1.37,3.12a25.72,25.72,0,0,0-1.15,4c-.49,2.58-1.06,6.26.87,8.41a4,4,0,0,0,2.36,1.29c1.15.16,1.65-.42,1.65,1A20.83,20.83,0,0,0,12,82.83a17.38,17.38,0,0,0,1.15,8.1c.18.47,1,.45,1.1,0A21.2,21.2,0,0,1,15.47,86c-.14.36.18,1.31.24,1.7.1.67.22,1.35.35,2a27.16,27.16,0,0,0,1.29,4.41c1.45,3.73,3.95,7.28,7.61,9.12a3.53,3.53,0,0,0,3.55.14c.29-.18.57-.59.9-.69.71-.21,1.17.9,1.63,1.41a7.45,7.45,0,0,0,4.68,2.13,6.81,6.81,0,0,0,4.53-.64c.5-.32,1.7-2.49,2.27-2.31a12.8,12.8,0,0,0,7.48.08,4.6,4.6,0,0,0,2.7-2,9.38,9.38,0,0,0,.83.94c2.63,2.13,3.78.23,4.15.65a6.34,6.34,0,0,0,1.8,1.35,8.27,8.27,0,0,0,5.41.49,3.67,3.67,0,0,0,1.63-.94c.07-.09.46-.89.47-.9a23.34,23.34,0,0,0,4.49-2.38c.35,1.37,1.22,2.56,2.81,2.33,2.67-.4,5.11-4.31,6.11-6.53a19,19,0,0,0,.86-2.29,3,3,0,0,0,1.51-.25,5.1,5.1,0,0,0,2.43-3.37,19.08,19.08,0,0,0,.73-5.38A15.08,15.08,0,0,0,86.43,81Z"/><path class="cls-3" d="M38.7,34.1c4.25,4.37,9.72,5.95,12.21,3.54s1.05-7.92-3.2-12.29c-3.24-3.32-11-6-14.45-7.14A1,1,0,0,0,32,19.48C33,23,35.46,30.77,38.7,34.1Z"/><path class="cls-3" d="M38.19,37.73c5.33,3,11,2.93,12.72-.09s-1.26-7.89-6.59-10.86c-4-2.26-12.21-2.66-15.89-2.72a1,1,0,0,0-.89,1.58C29.52,28.74,34.14,35.47,38.19,37.73Z"/><path class="cls-3" d="M57.15,34.1c-4.26,4.37-9.73,5.95-12.21,3.54s-1.06-7.92,3.2-12.29c3.24-3.32,10.94-6,14.45-7.14a1,1,0,0,1,1.31,1.27C62.89,23,60.39,30.77,57.15,34.1Z"/><path class="cls-3" d="M57.66,37.73c-5.34,3-11,2.93-12.72-.09s1.25-7.89,6.59-10.86c4-2.26,12.21-2.66,15.89-2.72a1,1,0,0,1,.89,1.58C66.33,28.74,61.71,35.47,57.66,37.73Z"/><ellipse class="cls-1" cx="48.23" cy="32.51" rx="16.57" ry="16.54"/><ellipse class="cls-4" cx="48.23" cy="32.51" rx="13.69" ry="13.66"/><ellipse class="cls-3" cx="48.23" cy="32.51" rx="7.92" ry="7.91"/><rect class="cls-1" x="41.45" y="8.47" width="12.9" height="5.38" rx="2.69"/><path class="cls-3" d="M36.53,54a2.2,2.2,0,0,0,0,1.41l.85,2.69A17.58,17.58,0,0,0,40,63.21c2.84,3.83,5.62,4.23,8.22,4.26v-15H44C41,52.48,37.33,51.79,36.53,54Z"/><path class="cls-3" d="M59.92,54c-.79-2.16-4.49-1.47-7.44-1.47H48.24v15c2.61,0,5.39-.43,8.23-4.26a17.55,17.55,0,0,0,2.61-5.16l.86-2.69A2.2,2.2,0,0,0,59.92,54Z"/><path class="cls-4" d="M48.23,60h0a4.66,4.66,0,0,0,4.65-4.65V52.47H43.57v2.85A4.67,4.67,0,0,0,48.23,60Z"/><ellipse class="cls-1" cx="100.49" cy="39.96" rx="2.01" ry="4.45" transform="translate(-2.6 7.29) rotate(-4.1)"/><ellipse class="cls-1" cx="105.36" cy="40.84" rx="4.46" ry="2.01" transform="translate(10.77 102.65) rotate(-54.35)"/><ellipse class="cls-2" cx="104.99" cy="45.52" rx="2.35" ry="2.01" transform="translate(6.58 103.91) rotate(-54.12)"/><ellipse class="cls-2" cx="104.98" cy="47.66" rx="2.35" ry="2.01" transform="translate(4.83 104.79) rotate(-54.12)"/><ellipse class="cls-2" cx="99.46" cy="44.45" rx="2.36" ry="2.35" transform="translate(-1.34 85.77) rotate(-46.37)"/></g></g></svg>