<svg xmlns="http://www.w3.org/2000/svg" viewBox="0 0 114.89 91.41"><defs><style>.cls-1{fill:#6cb53c;}.cls-2{fill:#c5d656;}.cls-3{fill:#fff;}.cls-4{fill:#0f110f;}.cls-5{fill:#9cb436;}.cls-6{fill:#ec69a4;}.cls-7{fill:#cc5090;}</style></defs><title>green</title><g id="Слой_2" data-name="Слой 2"><g id="Layer_1" data-name="Layer 1"><path class="cls-1" d="M83.22,19.64s7-2.17,5.58-5.72a5.24,5.24,0,0,0-2.31-2.62L94,6.6,102.86,6S101.54,16.78,89.07,24.1C79.57,29.67,83.22,19.64,83.22,19.64Z"/><path class="cls-1" d="M79.69,20.75s1.37-2.32,2.94-2.84a2.17,2.17,0,0,1,2.83,2.84s5.05-1.11,5.78,2.14-2.73,5.31-5.17,5C81,27.2,79.69,20.75,79.69,20.75Z"/><path class="cls-1" d="M34.22,18.65s-7-2.17-5.58-5.71A5.25,5.25,0,0,1,31,10.31l-7.46-4.7L14.58,5s1.33,10.78,13.79,18.1C37.87,28.68,34.22,18.65,34.22,18.65Z"/><path class="cls-1" d="M35.84,19.52s-5.22-7.1-9.1-3.7c-3.45,3,1,5.91,1,5.91s-4.63-.18-3.85,3.94c1,5,7.48,0,7.48,0Z"/><path class="cls-1" d="M72.78,91.15a3.17,3.17,0,0,1-1.12-.21,3.08,3.08,0,0,1-1.75-4c2.47-6.33,0-13.28,0-13.35a3.08,3.08,0,0,1,5.78-2.12c.14.37,3.31,9.16,0,17.71A3.07,3.07,0,0,1,72.78,91.15Z"/><path class="cls-1" d="M80.48,79.87c-1.23.85-10.82,8.66-9.91,9.55s12-5.49,13.23-6.33,1.49-2.26.57-3.15A3.23,3.23,0,0,0,80.48,79.87Z"/><path class="cls-1" d="M84.57,82.48c-1.43.61-13.58,6.35-12.93,7.38s13.85-3,15.27-3.63,2.06-1.94,1.41-3A3.07,3.07,0,0,0,84.57,82.48Z"/><path class="cls-1" d="M86.19,86.84c-1.58.19-14.69,2.73-14.52,3.89s13.56.51,15.14.32,2.72-1.29,2.55-2.45S87.77,86.65,86.19,86.84Z"/><path class="cls-1" d="M41.41,91.15a3.17,3.17,0,0,0,1.12-.21,3.08,3.08,0,0,0,1.75-4c-2.47-6.33,0-13.28,0-13.35a3.08,3.08,0,0,0-5.78-2.12c-.14.37-3.31,9.16,0,17.71A3.07,3.07,0,0,0,41.41,91.15Z"/><path class="cls-1" d="M33.71,79.87c1.24.85,10.82,8.66,9.91,9.55s-12-5.49-13.23-6.33-1.49-2.26-.57-3.15A3.23,3.23,0,0,1,33.71,79.87Z"/><path class="cls-1" d="M29.62,82.48c1.43.61,13.58,6.35,12.94,7.38s-13.86-3-15.28-3.63-2.06-1.94-1.41-3A3.08,3.08,0,0,1,29.62,82.48Z"/><path class="cls-1" d="M28,86.84c1.58.19,14.69,2.73,14.52,3.89s-13.56.51-15.14.32-2.72-1.29-2.55-2.45S26.42,86.65,28,86.84Z"/><circle class="cls-1" cx="19.17" cy="4.6" r="4.6"/><circle class="cls-1" cx="28.09" cy="6.72" r="4.6"/><circle class="cls-1" cx="98.26" cy="5.58" r="4.6"/><circle class="cls-1" cx="89.35" cy="7.7" r="4.6"/><path class="cls-1" d="M103,49.44c-.1-.33-1.07-3.22-5.55-4-5.87-1.07-7.57,1.06-7.59,1.08a.67.67,0,0,0,.09-.14l-5.31-3.12c.35-.6,3.71-5.74,13.92-3.88,8.56,1.55,10.33,8.25,10.4,8.53l-6,1.5Z"/><path class="cls-1" d="M11.45,49.44v-.06l-6-1.5c.07-.28,1.83-7,10.4-8.53,10.21-1.86,13.56,3.28,13.91,3.88l-5.3,3.12a.67.67,0,0,0,.09.14S22.86,44.34,17,45.41C12.52,46.22,11.54,49.11,11.45,49.44Z"/><path class="cls-1" d="M5,48.56c0-1.9,2.16-3.23,4.07-3.23a3.22,3.22,0,0,1,3.18,3.44,3.45,3.45,0,0,1-3.44,3.45A3.93,3.93,0,0,1,5,48.56Z"/><path class="cls-1" d="M12.84,55a1.45,1.45,0,0,1-1.29-.79L9.73,50.61a1.45,1.45,0,0,1,.64-1.93,1.43,1.43,0,0,1,1.93.63l1.82,3.58a1.44,1.44,0,0,1-.63,1.94A1.39,1.39,0,0,1,12.84,55Z"/><path class="cls-1" d="M8.1,57.93l-.2,0a1.44,1.44,0,0,1-1.23-1.62l.71-5.09a1.44,1.44,0,1,1,2.85.39l-.71,5.09A1.44,1.44,0,0,1,8.1,57.93Z"/><path class="cls-1" d="M4,56.25a1.42,1.42,0,0,1-.74-.2,1.45,1.45,0,0,1-.49-2l2.64-4.41a1.44,1.44,0,0,1,2.47,1.48L5.24,55.55A1.43,1.43,0,0,1,4,56.25Z"/><path class="cls-1" d="M1.44,52.41A1.44,1.44,0,0,1,.77,49.7l4.54-2.41a1.44,1.44,0,0,1,1.35,2.55l-4.55,2.4A1.34,1.34,0,0,1,1.44,52.41Z"/><path class="cls-1" d="M109.87,49.55c0-1.91-2.15-3.24-4.06-3.24a3.22,3.22,0,0,0-3.18,3.44,3.44,3.44,0,0,0,3.44,3.45A3.92,3.92,0,0,0,109.87,49.55Z"/><path class="cls-1" d="M102.05,56a1.44,1.44,0,0,0,1.28-.79l1.82-3.58a1.44,1.44,0,1,0-2.56-1.31l-1.82,3.59a1.43,1.43,0,0,0,.63,1.93A1.39,1.39,0,0,0,102.05,56Z"/><path class="cls-1" d="M106.79,58.91l.2,0a1.43,1.43,0,0,0,1.23-1.62l-.71-5.09a1.44,1.44,0,1,0-2.85.39l.71,5.1A1.43,1.43,0,0,0,106.79,58.91Z"/><path class="cls-1" d="M110.88,57.23a1.42,1.42,0,0,0,.74-.2,1.44,1.44,0,0,0,.49-2l-2.64-4.41A1.44,1.44,0,0,0,107,52.12l2.64,4.41A1.45,1.45,0,0,0,110.88,57.23Z"/><path class="cls-1" d="M113.45,53.39a1.44,1.44,0,0,0,.67-2.71l-4.54-2.41a1.44,1.44,0,1,0-1.35,2.55l4.55,2.41A1.44,1.44,0,0,0,113.45,53.39Z"/><path class="cls-2" d="M89.76,42.27a32.2,32.2,0,0,0-64.38.83c0,.26,0,.52,0,.78V63.42A13.39,13.39,0,0,0,38.75,76.81c11.72,3.47,24.4,3,37.72,0A13.4,13.4,0,0,0,89.86,63.42V43.88A14.35,14.35,0,0,0,89.76,42.27Z"/><path class="cls-3" d="M41.36,38a7.69,7.69,0,1,1,7.69-7.69A7.7,7.7,0,0,1,41.36,38Z"/><path class="cls-1" d="M41.36,23.84a6.46,6.46,0,1,1-6.45,6.46,6.46,6.46,0,0,1,6.45-6.46m0-2.46a8.92,8.92,0,1,0,8.92,8.92,8.93,8.93,0,0,0-8.92-8.92Z"/><circle class="cls-4" cx="40.76" cy="30.3" r="2.98"/><circle class="cls-3" cx="73.83" cy="30.53" r="7.92"/><path class="cls-1" d="M73.83,23.84a6.69,6.69,0,1,1-6.69,6.69,6.69,6.69,0,0,1,6.69-6.69m0-2.46A9.16,9.16,0,1,0,83,30.53a9.17,9.17,0,0,0-9.16-9.15Z"/><circle class="cls-4" cx="73.83" cy="30.92" r="2.98"/><path class="cls-5" d="M40.32,64.54A43,43,0,0,0,76.6,63.6,140.29,140.29,0,0,1,40.32,64.54Z"/><path class="cls-4" d="M80.31,49.16a6.66,6.66,0,0,0-1.06-2.95,6.38,6.38,0,0,0-2.89-2.39c-2.1-.87-4.62-.73-7-.6A274.68,274.68,0,0,1,40.53,43c-4.69-.24-6.54,2.42-6.65,5.48a10.13,10.13,0,0,0,2,6.27c2.8,3.63,7.93,5.92,13.26,6.75a50.6,50.6,0,0,0,16.19-.54c4.2-.71,8.53-1.78,11.5-4.2A8.72,8.72,0,0,0,80.31,49.16Z"/><path class="cls-6" d="M55,61.9h.16a50.68,50.68,0,0,0,16-2.68c1.32-.4,2.64-.85,3.92-1.37C72.81,47,52.76,51,55,61.9Z"/><path class="cls-6" d="M75,57.86s4.63,12.76-1.87,14.32S62.48,61.34,62.48,61.34,71.13,55.28,75,57.86Z"/><circle class="cls-1" cx="53.77" cy="37.94" r="1.75"/><circle class="cls-1" cx="60.09" cy="37.94" r="1.75"/><path class="cls-1" d="M69.53,7.36a4.49,4.49,0,0,0-5.1,0,4.81,4.81,0,0,0-.18-6.06,4.91,4.91,0,0,0-6.48-.14A7.65,7.65,0,0,0,55,7.06,4.47,4.47,0,0,0,48,5.41a5.65,5.65,0,0,0,.07,7.88C46.53,22.46,65,26.21,66.58,17a5,5,0,0,0,4.85-3.6A5.71,5.71,0,0,0,69.53,7.36Z"/><path class="cls-3" d="M39.13,43a3,3,0,0,0,.2,3.51,2.49,2.49,0,0,0,3.5.09,4.69,4.69,0,0,0,1.38-3.45L40.53,43A10.67,10.67,0,0,0,39.13,43Z"/><path class="cls-3" d="M68.64,47.32c2,0,3.65-2.16,3.73-4.19-1,0-2,0-3,.09-8.12.43-16.15.3-24.24,0-.7,1.34-.09,3.67,1.38,3.86a2.7,2.7,0,0,0,2.81-2.57,4.58,4.58,0,0,0,9.08.08,3.47,3.47,0,0,0,3.35,2.89,3.56,3.56,0,0,0,3.17-3.18A4.09,4.09,0,0,0,68.64,47.32Z"/><path class="cls-3" d="M46.63,51.54c-1.2,0-3.49,4.87-4.06,8A27.27,27.27,0,0,0,48,61.25C48.3,57.56,47.8,51.54,46.63,51.54Z"/><path class="cls-3" d="M52.77,57.13a2.83,2.83,0,0,0-2.62,1.74,6.93,6.93,0,0,0-.55,2.64,38.47,38.47,0,0,0,5.58.38A7.14,7.14,0,0,0,55,59.2,2.81,2.81,0,0,0,52.77,57.13Z"/><path class="cls-3" d="M76.68,54.07c-.78.32-1.47,2.2-1.35,3.7a12.72,12.72,0,0,0,1.54-1.06,11.43,11.43,0,0,0,1-1C77.59,54.84,77.34,53.79,76.68,54.07Z"/><polygon class="cls-7" points="62.48 61.34 61.28 57.77 60.49 61.62 62.48 61.34"/></g></g></svg>