<svg xmlns="http://www.w3.org/2000/svg" viewBox="0 0 53.95 75.91"><defs><style>.cls-1{fill:#a7d8d6;}.cls-2{fill:#70beb9;}.cls-3{fill:#009ea7;}.cls-4{fill:#fff16a;}</style></defs><title>house4</title><g id="Слой_2" data-name="Слой 2"><g id="Layer_1" data-name="Layer 1"><polygon class="cls-1" points="26.98 2.64 6.15 27.6 26.98 28.49 47.8 27.6 26.98 2.64"/><path class="cls-1" d="M44.62,46.82c0-7.49,2.49-12.6,3.18-19.22l-8.7-3.47L6.15,27.6c.7,6.62,3.19,11.73,3.19,19.22C9.34,55.51,6,60.76,6,69.45a30.32,30.32,0,0,0,.15,3.09c.11,1.18,3.29,1.09,3.5,2.17H23.07l8.45.34,12.17-.83c.21-1.07,4-.5,4.15-1.68.09-1,.14-2,.14-3.09C48,60.76,44.62,55.51,44.62,46.82Z"/><rect class="cls-2" x="20.87" y="48.53" width="5.3" height="2.22" rx="1.11"/><rect class="cls-2" x="24.33" y="45.24" width="5.3" height="2.22" rx="1.11"/><path class="cls-2" d="M32.28,48.53H28.6c-.45,0-.81.25-.81.56v1.1c0,.31.36.56.81.56h3.68c.44,0,.81-.25.81-.56v-1.1C33.09,48.78,32.72,48.53,32.28,48.53Z"/><path class="cls-3" d="M6.12,72.54a33.68,33.68,0,0,0,.49,3.37H47.35c.21-1.07.37-2.19.49-3.37Z"/><path class="cls-2" d="M27.16,58.15h0a9.46,9.46,0,0,1,9.46,9.46v8.3a0,0,0,0,1,0,0H17.69a0,0,0,0,1,0,0v-8.3a9.46,9.46,0,0,1,9.46-9.46Z"/><ellipse class="cls-1" cx="22.73" cy="68.31" rx="1.86" ry="1.28"/><path class="cls-3" d="M53.63,31.22,27,0h0L.32,31.22c-.67.8-.26,1.83.9,2.29a3.1,3.1,0,0,0,3.32-.62L27,6,49.41,32.89a3.1,3.1,0,0,0,3.32.62C53.9,33.05,54.3,32,53.63,31.22Z"/><path class="cls-3" d="M36.32,34.66C36.32,40.43,31.85,43,27,43s-9.35-2.52-9.35-8.29S22.1,22.16,27,22.16,36.32,29,36.32,34.66Z"/><path class="cls-4" d="M26.91,24.74c-2.74,0-6.54,5.05-6.54,10,0,5.23,4.54,5.77,6.54,5.77s6.54-.6,6.54-5.77C33.45,29.73,29.65,24.74,26.91,24.74Z"/><path class="cls-3" d="M34.59,31.35H28.25V24.08H25.64v7.27H19.3V33.7h6.34V41h2.61V33.7h6.34Z"/></g></g></svg>