<svg xmlns="http://www.w3.org/2000/svg" viewBox="0 0 80.37 147.92"><defs><style>.cls-1{fill:#70beb9;}.cls-2{fill:#a7d8d6;}.cls-3{fill:#eceef9;}.cls-4{fill:#d2eaec;}.cls-5{fill:#fff16a;}</style></defs><title>house2</title><g id="Слой_2" data-name="Слой 2"><g id="Layer_1" data-name="Layer 1"><polygon class="cls-1" points="47.84 50.86 32.54 50.86 35.08 33.66 45.3 33.66 47.84 50.86"/><rect class="cls-1" x="32.54" y="31.49" width="15.29" height="4.34" rx="2.17"/><path class="cls-2" d="M80.37,109.64c0,22.19-18,38.28-40.18,38.28S0,131.83,0,109.64,18,49.12,40.19,49.12,80.37,87.45,80.37,109.64Z"/><path class="cls-3" d="M40.16,27a6.25,6.25,0,0,0,2.4-7.24c-1.64-5-7.37-6.23-5.7-12.3A7.58,7.58,0,0,1,44.1,1.59c-2.54-2-7.46-2.15-10.4-.18A9.46,9.46,0,0,0,32,15.83C35.62,20.15,41.68,20.21,40.16,27Z"/><path class="cls-2" d="M80.37,109.64a57.92,57.92,0,0,0-1.2-11.08C75,100,59.34,103.9,40.27,103.89S5.44,100,1.21,98.56A57.18,57.18,0,0,0,0,109.64c0,21.49,16.87,37.26,38.1,38.23.7,0,1.39,0,2.09,0C62.38,147.92,80.37,131.83,80.37,109.64Z"/><path class="cls-4" d="M50.8,107.62a62.32,62.32,0,0,0,28.75-7c-3.76-22.2-20-51.5-39.36-51.5C24.58,49.12,11.05,68.07,4.4,87A62.41,62.41,0,0,0,50.8,107.62Z"/><rect class="cls-1" x="18.67" y="142.23" width="43.08" height="5.69"/><path class="cls-1" d="M40.19,115.62h0A11.85,11.85,0,0,1,52,127.47v20.45a0,0,0,0,1,0,0H28.34a0,0,0,0,1,0,0V127.47A11.85,11.85,0,0,1,40.19,115.62Z"/><circle class="cls-4" cx="34.64" cy="134.1" r="2.33"/><path class="cls-1" d="M52.2,83.12c0,8.24-5.75,11.84-12,11.84s-12-3.6-12-11.84,5.74-17.84,12-17.84S52.2,75,52.2,83.12Z"/><path class="cls-5" d="M40.1,69c-3.52,0-8.41,7.21-8.41,14.24,0,7.46,5.84,8.24,8.41,8.24s8.41-.86,8.41-8.24C48.51,76.09,43.62,69,40.1,69Z"/><path class="cls-1" d="M50,78.41H41.82V68H38.47V78.41H30.32v3.34h8.15V92.13h3.35V81.75H50Z"/></g></g></svg>