<svg xmlns="http://www.w3.org/2000/svg" viewBox="0 0 72.32 154.77"><defs><style>.cls-1{fill:#d2eaec;}.cls-2{fill:#70beb9;}.cls-3{fill:#289092;}.cls-4{fill:#ffea6f;}.cls-5{fill:#a7d8d6;}.cls-6{fill:#44a1a3;}</style></defs><title>house3</title><g id="Слой_2" data-name="Слой 2"><g id="Layer_1" data-name="Layer 1"><path class="cls-1" d="M67.54,2.86H3.27c1.52,8.65,4.34,15.58,4.34,26.25,0,14.6-5.27,22.17-5.27,36.76S7.61,88,7.61,102.63,2.34,124.8,2.34,139.39a59.61,59.61,0,0,0,1,10.83H60.67c-.59-3.27,5.93-6.78,5.93-10.83,0-14.59,5.28-22.17,5.28-36.76S66.6,80.47,66.6,65.87s5.28-22.16,5.28-36.76C71.87,18.44,69.06,11.52,67.54,2.86Z"/><rect class="cls-2" width="72.32" height="5.72" rx="2.86"/><path class="cls-2" d="M61.47,34.68c0,8.55-6,12.36-12.54,12.36S36.38,43.23,36.38,34.68,42.34,16,48.93,16,61.47,26.14,61.47,34.68Z"/><path class="cls-3" d="M48.93,19.81c3.68,0,8.79,7.49,8.79,14.87,0,7.76-6.14,8.61-8.79,8.61s-8.78-.85-8.78-8.61c0-7.38,5.11-14.87,8.78-14.87"/><polygon class="cls-2" points="59.24 29.77 50.7 29.77 50.7 18.9 47.16 18.9 47.16 29.77 38.62 29.77 38.62 33.31 47.16 33.31 47.16 44.19 50.7 44.19 50.7 33.31 59.24 33.31 59.24 29.77"/><path class="cls-2" d="M61.47,96.65c0,8.56-6,12.36-12.54,12.36s-12.55-3.8-12.55-12.36S42.34,78,48.93,78,61.47,88.12,61.47,96.65Z"/><path class="cls-4" d="M48.93,81.8c3.68,0,8.79,7.5,8.79,14.88,0,7.76-6.14,8.6-8.79,8.6s-8.78-.87-8.78-8.63c0-7.38,5.11-14.88,8.78-14.88"/><polygon class="cls-2" points="59.24 91.77 50.7 91.77 50.7 80.9 47.16 80.9 47.16 91.77 38.62 91.77 38.62 95.31 47.16 95.31 47.16 106.19 50.7 106.19 50.7 95.31 59.24 95.31 59.24 91.77"/><path class="cls-2" d="M34.76,65.68c0,8.56-6,12.36-12.55,12.36S9.64,74.24,9.64,65.68,15.61,47,22.19,47,34.76,57.12,34.76,65.68Z"/><path class="cls-4" d="M22.21,50.81c3.68,0,8.79,7.5,8.79,14.88,0,7.76-6.14,8.6-8.79,8.6s-8.78-.84-8.78-8.6c0-7.38,5.11-14.88,8.78-14.88"/><rect class="cls-5" x="2.34" y="139.4" width="64.44" height="11.28"/><rect class="cls-5" x="16.38" y="92.46" width="6.14" height="3.74" rx="0.97"/><rect class="cls-5" x="20.39" y="98" width="6.14" height="3.74" rx="0.94"/><path class="cls-5" d="M24.4,122.39H44.7A2.58,2.58,0,0,1,47.28,125v29.76H21.82V125A2.58,2.58,0,0,1,24.4,122.39Z"/><path class="cls-2" d="M40.38,126.15H26.21a.65.65,0,0,0-.65.65v28H43.5v-28a.65.65,0,0,0-.65-.65Z"/><rect class="cls-5" x="43.1" y="64" width="6.14" height="3.74" rx="0.97"/><rect class="cls-5" x="47.11" y="58.46" width="6.14" height="3.74" rx="0.97"/><rect class="cls-5" x="51.13" y="64" width="6.14" height="3.74" rx="0.94"/><circle class="cls-6" cx="30.79" cy="140.45" r="2.3"/><rect class="cls-2" x="2.34" y="150.69" width="64.44" height="4.07"/><rect class="cls-5" x="21.02" y="21.13" width="6.14" height="3.74" rx="0.97"/><rect class="cls-5" x="17.01" y="26.66" width="6.14" height="3.74" rx="0.94"/></g></g></svg>