<svg xmlns="http://www.w3.org/2000/svg" viewBox="0 0 128.64 142.05"><defs><style>.cls-1{fill:#007f98;}.cls-2{fill:#eceef9;}.cls-3{fill:#70beb9;}.cls-4{fill:#009ea7;}.cls-5{fill:#d2eaec;}.cls-6{fill:#a7d8d6;}.cls-7{fill:#007b93;}.cls-8{fill:#fff16a;}</style></defs><title>house5</title><g id="Слой_2" data-name="Слой 2"><g id="Layer_1" data-name="Layer 1"><path class="cls-1" d="M98.17,54.2H82.77l2.54-17.3H95.63Z"/><path class="cls-1" d="M97.45,34.68H83.56a.8.8,0,0,0-.79.8v2.85a.8.8,0,0,0,.79.8H97.45a.8.8,0,0,0,.8-.8V35.48A.86.86,0,0,0,97.45,34.68Z"/><path class="cls-2" d="M90.47,29.92a7.08,7.08,0,0,0,2.7-3.57,7.2,7.2,0,0,0,0-4.45C91.34,16.35,85,15,86.82,8.26a8.43,8.43,0,0,1,2.93-4.61,8.6,8.6,0,0,1,5.16-1.9c-2.85-2.22-8.25-2.38-11.5-.16a10.28,10.28,0,0,0-3.18,3.25,10.36,10.36,0,0,0-1.51,4.29,10.67,10.67,0,0,0,2.78,8.41C85.39,22.38,92.13,22.46,90.47,29.92Z"/><path class="cls-3" d="M29.52,96.42,6.27,106.1v36H33.89Z"/><path class="cls-4" d="M2.3,111.58,0,107.14,31,93.41,29.84,99.6Z"/><path class="cls-5" d="M124.51,83.33H65.79v58.72h58.72Z"/><polygon class="cls-6" points="65.87 86.5 44.92 54.2 27.14 86.5 27.14 142.05 65.87 142.05 65.87 86.5"/><path class="cls-7" d="M42.06,52.22l-19,34.28h4L45.87,52.22Z"/><path class="cls-4" d="M56,99C56,106.66,50.71,110,44.92,110S33.81,106.66,33.81,99s5.31-16.51,11.11-16.51S56,91.5,56,99Z"/><path class="cls-8" d="M44.84,86c-3.26,0-7.78,6.66-7.78,13.17,0,6.9,5.4,7.62,7.78,7.62s7.77-.79,7.77-7.62C52.61,92.53,48.09,86,44.84,86Z"/><path class="cls-4" d="M54,94.68H46.42V85.07H43.33v9.61H35.79v3.09h7.54v9.6h3.09v-9.6H54Z"/><path class="cls-3" d="M38.17,129h4.76a1,1,0,0,1,.72.32,1,1,0,0,1,.31.71v2.14a1,1,0,0,1-.31.72,1,1,0,0,1-.72.31H38.17a.94.94,0,0,1-.71-.31,1,1,0,0,1-.32-.72v-2.14a.72.72,0,0,1,.08-.4c.08-.08.08-.23.24-.31a1.19,1.19,0,0,1,.31-.24A.72.72,0,0,1,38.17,129Z"/><path class="cls-3" d="M42.54,123H47.3a1,1,0,0,1,.71.31,1,1,0,0,1,.32.72v2.14a1,1,0,0,1-.32.72,1,1,0,0,1-.71.31H42.54a1,1,0,0,1-.72-.31,1,1,0,0,1-.32-.72V124a.72.72,0,0,1,.08-.4c.08-.08.08-.24.24-.32a1.33,1.33,0,0,1,.32-.23A3.46,3.46,0,0,1,42.54,123Z"/><path class="cls-3" d="M51.58,129H47a1,1,0,0,0-1,1v2.06a1.05,1.05,0,0,0,1,1h4.6a1.05,1.05,0,0,0,1-1v-2.06A1.09,1.09,0,0,0,51.58,129Z"/><path class="cls-4" d="M43.65,52.22l19,34.28h66L109.75,52.22Z"/><path class="cls-1" d="M60.63,64.12A4.45,4.45,0,0,0,62,66.19a4.06,4.06,0,0,0,2.3.79,3.87,3.87,0,0,0,2.3-.79,4.09,4.09,0,0,0,1.35-2.07Z"/><path class="cls-1" d="M68,69.76a4.43,4.43,0,0,0,1.35,2.06,4,4,0,0,0,2.3.79,3.8,3.8,0,0,0,2.3-.79,4.06,4.06,0,0,0,1.35-2.06Z"/><path class="cls-1" d="M75.39,64.12a4.45,4.45,0,0,0,1.35,2.07A3.55,3.55,0,0,0,79,67a3.87,3.87,0,0,0,2.3-.79,4.09,4.09,0,0,0,1.35-2.07Z"/><path class="cls-1" d="M90.15,71.19a4.56,4.56,0,0,0,1.35,2.06,3.74,3.74,0,0,0,4.6,0,4.1,4.1,0,0,0,1.35-2.06Z"/><path class="cls-1" d="M97.53,76.9A4.5,4.5,0,0,0,98.88,79a4,4,0,0,0,2.3.8,3.81,3.81,0,0,0,2.3-.8,4.06,4.06,0,0,0,1.35-2.06Z"/><path class="cls-1" d="M104.83,71.19a4.56,4.56,0,0,0,1.35,2.06,4,4,0,0,0,2.3.79,3.78,3.78,0,0,0,2.3-.79,4,4,0,0,0,1.35-2.06Z"/><path class="cls-3" d="M95.23,112.17h0a11,11,0,0,1,11,11v18.92a0,0,0,0,1,0,0H84.27a0,0,0,0,1,0,0V123.14A11,11,0,0,1,95.23,112.17Z"/><circle class="cls-4" cx="90.1" cy="129.27" r="2.15"/><path class="cls-3" d="M79.5,142.05h0V123.14a15.73,15.73,0,1,1,31.45,0v18.91h3.18V123.14a18.9,18.9,0,1,0-37.8,0v18.91H79.5Z"/></g></g></svg>