<svg xmlns="http://www.w3.org/2000/svg" viewBox="0 0 153.8 108.85"><defs><style>.cls-1{fill:#70beb9;}.cls-2{fill:#a7d8d6;}.cls-3{fill:#d2eaec;}.cls-4{opacity:0.5;}.cls-5{fill:#e6f4f6;}.cls-6{fill:#ffea6f;}.cls-7{fill:#44a1a3;}</style></defs><title>house1</title><g id="Слой_2" data-name="Слой 2"><g id="Layer_1" data-name="Layer 1"><path class="cls-1" d="M124,23.14c-3-3.35-9.39-3.24-15.14-.93.52-6.47-1.4-13-5.75-15C99,5.35,93.07,8,88.63,12.36,86.62,5.79,81.94,0,76.91,0s-9.7,5.82-11.73,12.37c-4.44-4.39-10.35-7-14.5-5.14-4.35,1.94-6.28,8.49-5.75,15-5.75-2.3-12.09-2.42-15.14.93-4.48,4.9-1,16.32,5.34,22.25h83.55C125.05,39.46,128.5,28,124,23.14Z"/><path class="cls-2" d="M115.86,39.9s-17.72-17.71-38.95-18c-21.23.31-38.31,18-38.31,18S8.8,62.66,8.64,62.66v46.19H145.17V62.66C145,62.66,115.86,39.9,115.86,39.9Z"/><path class="cls-1" d="M142.7,58.37c-14.1,0-20.12-8.64-26.52-17.79-7.76-11.17-15.81-22.7-39.3-23-23.5.32-31.54,11.85-39.31,23C31.2,49.73,25.19,58.37,11.05,58.37H6.64L11.05,67C29.67,67,38,55.1,44.64,45.52,52,34.9,57.89,26.49,76.85,26.2c19,.29,24.82,8.7,32.21,19.32C115.73,55.1,124,67,142.65,67l4.41-8.65Z"/><rect class="cls-3" x="140.33" y="61.87" width="6.78" height="46.98"/><path class="cls-3" d="M142.7,52c-10.79,0-15.18-6.32-21.27-15.07C113.54,25.6,103.74,11.54,76.9,11.2c-26.83.34-36.63,14.4-44.53,25.74C26.29,45.69,21.89,52,11.1,52H0v3.54a7.16,7.16,0,0,0,7.17,7.11h3.94c16.36,0,23.62-10.44,30-19.65C48.61,32.29,55.67,22.16,76.9,21.85c21.23.31,28.3,10.44,35.76,21.16,6.41,9.21,13.67,19.65,30,19.65h3.94a7.16,7.16,0,0,0,7.16-7.11V52Z"/><rect class="cls-3" x="6.7" y="61.88" width="6.78" height="46.98"/><polygon class="cls-1" points="76.9 97.15 6.7 97.15 6.7 108.86 76.9 108.86 147.11 108.86 147.11 97.15 76.9 97.15"/><g class="cls-4"><rect class="cls-5" x="115.07" y="81.54" width="6.26" height="3.81" rx="0.97"/><rect class="cls-5" x="119.16" y="75.9" width="6.26" height="3.81" rx="0.97"/></g><g class="cls-4"><rect class="cls-5" x="33.43" y="81.54" width="6.26" height="3.81" rx="0.97"/><rect class="cls-5" x="29.35" y="75.9" width="6.26" height="3.81" rx="0.97"/><rect class="cls-5" x="25.26" y="81.54" width="6.26" height="3.81" rx="0.96"/></g><path class="cls-1" d="M89.68,55c0,8.72-6.08,12.59-12.78,12.59S64.13,63.74,64.13,55s6.07-19,12.77-19S89.68,46.33,89.68,55Z"/><path class="cls-6" d="M76.91,39.9c3.74,0,8.94,7.63,8.94,15.14,0,7.9-6.25,8.76-8.94,8.76S68,62.94,68,55c0-7.51,5.17-15.14,8.93-15.14"/><polygon class="cls-1" points="87.41 50.05 78.71 50.05 78.71 38.97 75.1 38.97 75.1 50.05 66.4 50.05 66.4 53.65 75.1 53.65 75.1 64.72 78.71 64.72 78.71 53.65 87.41 53.65 87.41 50.05"/><path class="cls-3" d="M98.36,75.9H55.45a2.59,2.59,0,0,0-2.56,2.55v30.4h48V78.45A2.59,2.59,0,0,0,98.36,75.9Z"/><polygon class="cls-1" points="59.92 79.73 74.99 79.73 74.99 108.86 56.72 108.86 56.72 79.73 59.92 79.73"/><circle class="cls-7" cx="69.68" cy="94.29" r="2.34"/><polygon class="cls-1" points="93.89 79.73 78.82 79.73 78.82 108.86 97.09 108.86 97.09 79.73 93.89 79.73"/><circle class="cls-7" cx="84.12" cy="94.29" r="2.34"/></g></g></svg>