<svg xmlns="http://www.w3.org/2000/svg" viewBox="0 0 132.58 101.22"><defs><style>.cls-1{fill:#c0252b;}.cls-2{fill:#e8414e;}.cls-3,.cls-4{fill:none;stroke:#121413;stroke-linecap:round;stroke-miterlimit:10;}.cls-3{stroke-width:4.9px;}.cls-4{stroke-width:2.02px;}.cls-5{fill:#fff;}.cls-6{fill:#121413;}.cls-7{fill:#272828;}.cls-8{fill:#6f68ad;}</style></defs><title>red</title><g id="Слой_2" data-name="Слой 2"><g id="Layer_1" data-name="Layer 1"><path class="cls-1" d="M47.84,99.3a6,6,0,1,0-11.92,0,6.14,6.14,0,0,0,.28,1.83H47.56A6.14,6.14,0,0,0,47.84,99.3Z"/><path class="cls-1" d="M97,99.3a6,6,0,0,0-11.93,0,5.84,5.84,0,0,0,.29,1.83H96.72A5.84,5.84,0,0,0,97,99.3Z"/><path class="cls-1" d="M23.48,75.28A20.83,20.83,0,0,0,32,74a16.31,16.31,0,0,0,6.92-5l-6.1-4.94c-1.89,2.35-5.06,3.54-8.91,3.35a22.32,22.32,0,0,1-12.17-4.77,3.9,3.9,0,0,0-1.77-1.12,4,4,0,0,0-3,7.38A30.17,30.17,0,0,0,23.48,75.28Z"/><path class="cls-1" d="M6.74,55.48h0a1.75,1.75,0,0,0-.26,2.39l2.29,4c.54.92,1.53,1.37,2.2,1h0a1.76,1.76,0,0,0,.26-2.4l-2.29-4A1.75,1.75,0,0,0,6.74,55.48Z"/><path class="cls-1" d="M2.16,58.32h0a1.76,1.76,0,0,0,.53,2.35l3.46,3a1.75,1.75,0,0,0,2.4.22h0A1.76,1.76,0,0,0,8,61.58l-3.46-3A1.76,1.76,0,0,0,2.16,58.32Z"/><path class="cls-1" d="M.07,62.91h0c-.28.73.32,1.64,1.32,2l4.3,1.63A1.76,1.76,0,0,0,8,65.92H8c.28-.73-.31-1.63-1.32-2l-4.3-1.63A1.74,1.74,0,0,0,.07,62.91Z"/><path class="cls-1" d="M1.33,68.49h0c0,.78.9,1.39,2,1.37l4.61-.1c1.07,0,1.93-.68,1.91-1.46h0c0-.78-.91-1.4-2-1.37l-4.6.1C2.17,67.05,1.31,67.71,1.33,68.49Z"/><ellipse class="cls-1" cx="9.89" cy="65.48" rx="5.17" ry="4.8"/><path class="cls-1" d="M14.91,57.12h0c-.77-.1-1.51.69-1.65,1.75l-.6,4.56c-.13,1.06.39,2,1.16,2.12h0c.77.1,1.52-.69,1.65-1.75l.6-4.57C16.2,58.17,15.69,57.22,14.91,57.12Z"/><circle class="cls-1" cx="13.19" cy="63.56" r="2.35"/><path class="cls-1" d="M109.1,75.28A20.78,20.78,0,0,1,100.63,74a16.4,16.4,0,0,1-6.93-5l6.11-4.94c1.89,2.35,5.06,3.54,8.91,3.35a22.26,22.26,0,0,0,12.16-4.77,3.93,3.93,0,0,1,1.78-1.12,4,4,0,0,1,3,7.38A30.14,30.14,0,0,1,109.1,75.28Z"/><path class="cls-1" d="M125.84,55.48h0a1.75,1.75,0,0,1,.26,2.39l-2.3,4c-.53.92-1.52,1.37-2.19,1h0a1.76,1.76,0,0,1-.26-2.4l2.29-4A1.75,1.75,0,0,1,125.84,55.48Z"/><path class="cls-1" d="M130.42,58.32h0a1.76,1.76,0,0,1-.53,2.35l-3.46,3a1.75,1.75,0,0,1-2.4.22h0a1.76,1.76,0,0,1,.53-2.35l3.46-3A1.76,1.76,0,0,1,130.42,58.32Z"/><path class="cls-1" d="M132.51,62.91h0c.28.73-.32,1.64-1.32,2l-4.3,1.63a1.77,1.77,0,0,1-2.33-.64h0c-.27-.73.32-1.63,1.32-2l4.31-1.63A1.74,1.74,0,0,1,132.51,62.91Z"/><path class="cls-1" d="M131.25,68.49h0c0,.78-.91,1.39-2,1.37l-4.6-.1c-1.07,0-1.93-.68-1.91-1.46h0c0-.78.91-1.4,2-1.37l4.6.1C130.41,67.05,131.27,67.71,131.25,68.49Z"/><ellipse class="cls-1" cx="122.69" cy="65.48" rx="5.17" ry="4.8"/><path class="cls-1" d="M117.67,57.12h0c.77-.1,1.51.69,1.65,1.75l.59,4.56c.14,1.06-.38,2-1.15,2.12h0c-.77.1-1.52-.69-1.65-1.75l-.6-4.57C116.37,58.17,116.89,57.22,117.67,57.12Z"/><circle class="cls-1" cx="119.39" cy="63.56" r="2.35"/><path class="cls-1" d="M49.91,70.49h0A10.24,10.24,0,0,1,60.15,80.73V94.14a7.08,7.08,0,0,1-7.08,7.08H49.91A10.24,10.24,0,0,1,39.67,91V80.73A10.24,10.24,0,0,1,49.91,70.49Z"/><path class="cls-1" d="M83,70.49h3.16a7.08,7.08,0,0,1,7.08,7.08V91A10.24,10.24,0,0,1,83,101.22h0A10.24,10.24,0,0,1,72.75,91V80.73A10.24,10.24,0,0,1,83,70.49Z" transform="translate(165.99 171.71) rotate(-180)"/><path class="cls-1" d="M74.06,30C63.37,41.49,60.34,56,67.3,62.54s21.27,2.47,32-9c7.64-8.18,14.06-28,17.1-38.58a3.83,3.83,0,0,0-5-4.66C101,14.08,81.7,21.84,74.06,30Z"/><path class="cls-1" d="M82.49,37.84c-14.47,6-23.22,18-19.55,26.84s18.36,11,32.82,5C106.1,65.35,120.1,50,127.25,41.54a3.83,3.83,0,0,0-2.63-6.3C113.6,34.4,92.82,33.53,82.49,37.84Z"/><path class="cls-1" d="M58.84,29.9c10.69,11.46,13.72,26,6.76,32.51s-21.27,2.47-32-9c-7.64-8.18-14.06-28-17.1-38.59a3.82,3.82,0,0,1,5-4.65C31.91,13.94,51.2,21.71,58.84,29.9Z"/><path class="cls-1" d="M50.41,37.71c14.47,6,23.22,18,19.55,26.84s-18.36,11-32.82,5C26.8,65.22,12.8,49.84,5.65,41.41a3.83,3.83,0,0,1,2.63-6.3C19.3,34.27,40.08,33.4,50.41,37.71Z"/><circle class="cls-2" cx="66.45" cy="46.42" r="46.42"/><path class="cls-3" d="M83,37.29a8.34,8.34,0,0,1,9.63,9.63"/><path class="cls-3" d="M40.27,47.09a8.34,8.34,0,0,1,9.54-9.71"/><line class="cls-4" x1="55.1" y1="19.78" x2="66.39" y2="29.71"/><line class="cls-4" x1="66.18" y1="14.31" x2="66.18" y2="29.34"/><line class="cls-4" x1="77.8" y1="19.45" x2="66.03" y2="28.8"/><path class="cls-3" d="M59.62,22.25a8.34,8.34,0,0,1,13.61-.07"/><circle class="cls-5" cx="66.45" cy="27.04" r="8.35"/><circle class="cls-6" cx="66.45" cy="27.04" r="5.91"/><line class="cls-4" x1="35.42" y1="48.42" x2="50.42" y2="47.47"/><line class="cls-4" x1="39.39" y1="36.72" x2="50.02" y2="47.35"/><line class="cls-4" x1="51.23" y1="32.14" x2="49.52" y2="47.07"/><circle class="cls-5" cx="48.58" cy="45.53" r="8.35"/><circle class="cls-6" cx="48.58" cy="45.53" r="5.91"/><line class="cls-4" x1="97.48" y1="48.42" x2="82.48" y2="47.47"/><line class="cls-4" x1="93.51" y1="36.72" x2="82.88" y2="47.35"/><line class="cls-4" x1="81.67" y1="32.14" x2="83.38" y2="47.07"/><circle class="cls-5" cx="84.32" cy="45.53" r="8.35"/><circle class="cls-6" cx="84.32" cy="45.53" r="5.91"/><path class="cls-7" d="M49.47,61.13s3.51,1.13,9.11,2.36l8.3,3.11,6.34-2.44a45.85,45.85,0,0,0,10.21-2.33s-1.72,7.78-8.79,11.33l-8.23-1.32-8.94.72C50.7,68.64,49.47,61.13,49.47,61.13Z"/><path class="cls-5" d="M65.65,67.4a8.74,8.74,0,0,0,7.55-3.22,41.48,41.48,0,0,1-6.15.34,44.07,44.07,0,0,1-8.49-1A9.18,9.18,0,0,0,65.65,67.4Z"/><path class="cls-8" d="M57.45,72.58a18.31,18.31,0,0,0,8.94,2.33,17.33,17.33,0,0,0,8.25-1.75,15,15,0,0,0-8.7-2.69A15.29,15.29,0,0,0,57.45,72.58Z"/><path class="cls-1" d="M94.09,99.3a6,6,0,0,0-11.93,0,5.84,5.84,0,0,0,.29,1.83H93.8A5.84,5.84,0,0,0,94.09,99.3Z"/><path class="cls-1" d="M50.77,99.3a6,6,0,0,0-11.93,0,5.84,5.84,0,0,0,.29,1.83H50.48A6.15,6.15,0,0,0,50.77,99.3Z"/></g></g></svg>