<svg xmlns="http://www.w3.org/2000/svg" viewBox="0 0 86.5 93.35"><defs><style>.cls-1{fill:#ffea00;}.cls-2{fill:#f18618;}.cls-3{fill:#fff;}.cls-4{fill:#0f110f;}</style></defs><title>yellow</title><g id="Слой_2" data-name="Слой 2"><g id="Layer_1" data-name="Layer 1"><path class="cls-1" d="M18,27S2.22,28.76.33,17.88C-1.67,6.38,6,4.11,8.63,5.4c5.82,2.81,1.58,8.47,5.82,11a16.21,16.21,0,0,0,8.11,2.4Z"/><path class="cls-2" d="M17.26,25.35c-3,0-5.24-.81-6.47-2.36a5.57,5.57,0,0,1-.4-.59,7.49,7.49,0,0,1-5.53-3.62A7.63,7.63,0,0,1,4,13.07a3,3,0,0,1,2.9-2,3.91,3.91,0,0,1,3.5,2.84,12.09,12.09,0,0,1,.38,3.38c0,1.73.08,3.52,1.12,4.82S15,24,17.87,23.89H18a.72.72,0,0,1,.72.72.73.73,0,0,1-.72.73h-.77ZM6.85,12.5a1.49,1.49,0,0,0-1.46,1.08,6.16,6.16,0,0,0,.73,4.48,5.83,5.83,0,0,0,3.6,2.72,14.85,14.85,0,0,1-.35-3.48,11.17,11.17,0,0,0-.32-3A2.46,2.46,0,0,0,6.89,12.5Z"/><path class="cls-1" d="M68.47,27s15.81,1.76,17.7-9.12c2-11.5-5.65-13.77-8.3-12.48-5.81,2.81-1.58,8.47-5.82,11a16.21,16.21,0,0,1-8.11,2.4L63,22.4Z"/><path class="cls-2" d="M69.21,25.35h-.74a.73.73,0,0,1-.72-.73.72.72,0,0,1,.72-.72h.16c2.83.11,4.94-.53,6-1.8s1.07-3.1,1.11-4.83a12.4,12.4,0,0,1,.38-3.37,3.91,3.91,0,0,1,3.5-2.84,3,3,0,0,1,2.9,2,7.66,7.66,0,0,1-.83,5.72,7.47,7.47,0,0,1-5.52,3.62h0a5.45,5.45,0,0,1-.4.58C74.5,24.52,72.2,25.35,69.21,25.35ZM79.66,12.5h0a2.47,2.47,0,0,0-2.16,1.83,10.76,10.76,0,0,0-.31,3,15.42,15.42,0,0,1-.36,3.48,5.81,5.81,0,0,0,3.61-2.72,6.18,6.18,0,0,0,.72-4.48A1.49,1.49,0,0,0,79.66,12.5Z"/><path class="cls-2" d="M22.75,88.9l-9.09-.05a1,1,0,1,1,0-2h0l6.94,0c-.18-3.15-.78-12.54-1.58-19C18.2,61.15,21.41,53,21.54,52.69a1,1,0,0,1,1.89.76c0,.08-3.16,8-2.39,14.17,1,7.88,1.65,20.09,1.66,20.21Z"/><path class="cls-2" d="M37.54,93.35H27.24a1,1,0,0,1,0-2h8c-.73-5.86-1.24-8.45-1.7-10.75-.39-2-.76-3.88-1.21-7.49-.82-6.66,1.66-15.42,1.77-15.79a1,1,0,1,1,1.94.56c0,.08-2.47,8.73-1.7,15,.44,3.54.8,5.39,1.19,7.34.49,2.48,1,5.29,1.86,12Z"/><path class="cls-2" d="M57.61,93.34h-10l.14-1.13c0-.12,1.47-12.25,2.45-20.1.35-2.85-1.18-8.72-2-11.87-.2-.76-.37-1.41-.48-1.88-.15-.65-.36-1.54.49-1.9a1.09,1.09,0,0,1,1.42.58,1,1,0,0,1,.07.91c.11.45.29,1.12.46,1.78.92,3.51,2.46,9.39,2.06,12.63-.8,6.44-1.93,15.75-2.31,19h7.67a1,1,0,0,1,0,2Z"/><path class="cls-2" d="M69.73,88.85h-10l.14-1.13c0-.12,1.48-12.25,2.45-20.1C63.13,61.43,60,53.53,60,53.45a1,1,0,1,1,1.88-.76c.13.35,3.35,8.46,2.51,15.17-.8,6.44-1.92,15.76-2.31,19h7.67a1,1,0,1,1,0,2Z"/><path class="cls-2" d="M35.68,9a10.06,10.06,0,0,0-4.77-3.65c-3.84-1.41-6.66,1.53-6.05,5.26a8.59,8.59,0,0,0-4,2.2c-1.61,1.72-3.18,6.82-2.92,10.29,0,0-12.82,7.89-7.49,15.18,2.5,3.43,3.13,3.59,3.13,3.59s-2.25,2.34.14,8.54c1.13,3,3.24,6.24,4.27,3.49,0,0,.14,5.44,3.39,7.07S30,60.63,30,60.63s5.09,3.82,22.58.18c0,0,8,1.23,10.91-2.21,2.53-3-.1-6.68-.1-6.68s6.19,4.67,7.85-.06S69,45.21,69,45.21s7.33,4.58,7.33-2.7c0-5.56-6.23-6.45-6.23-6.45s4.52-3,3.4-7.41c-1.47-5.85-7.37-6.44-7.37-6.44s2.55-2.75.51-5.56c-1.84-2.53-6.74-2.36-6.74-2.36s4.56.29,4.42-3.42S58.2,7.61,58.2,7.61s3.11-2.81.44-5.19S50.05,1.09,46.78,6c0,0,1.59-5-1-5.79C39.56-1.54,35.68,9,35.68,9Z"/><path class="cls-1" d="M15.2,63.36a1,1,0,0,1-1-.73C10.25,49,17,40.71,17.3,40.36a1,1,0,1,1,1.55,1.3h0a18.18,18.18,0,0,0-2.73,5.47,25.17,25.17,0,0,0,.06,14.93,1,1,0,0,1-.69,1.26A1,1,0,0,1,15.2,63.36Z"/><path class="cls-1" d="M68.77,63.36a1,1,0,0,1-.29,0,1,1,0,0,1-.69-1.26,25.17,25.17,0,0,0,.06-14.93,17.78,17.78,0,0,0-2.74-5.47,1,1,0,0,1,.14-1.43,1,1,0,0,1,1.42.13c.29.35,7,8.68,3.07,22.27A1,1,0,0,1,68.77,63.36Z"/><circle class="cls-1" cx="42.07" cy="34.73" r="25.27"/><circle class="cls-3" cx="42.24" cy="24.61" r="7.37"/><path class="cls-2" d="M42.24,33a8.38,8.38,0,1,1,8.38-8.38A8.39,8.39,0,0,1,42.24,33Zm0-14.73a6.35,6.35,0,1,0,6.35,6.35A6.36,6.36,0,0,0,42.24,18.26Z"/><circle class="cls-4" cx="42.27" cy="24.61" r="3.19"/><circle class="cls-3" cx="27.71" cy="24.61" r="4.15"/><path class="cls-2" d="M27.71,29.77a5.16,5.16,0,1,1,5.16-5.16A5.17,5.17,0,0,1,27.71,29.77Zm0-8.29a3.14,3.14,0,1,0,3.14,3.13A3.13,3.13,0,0,0,27.71,21.48Z"/><circle class="cls-4" cx="27.32" cy="23.79" r="1.8"/><circle class="cls-3" cx="56.77" cy="24.61" r="4.15"/><path class="cls-2" d="M56.77,29.77a5.16,5.16,0,1,1,5.16-5.16A5.16,5.16,0,0,1,56.77,29.77Zm0-8.29a3.14,3.14,0,1,0,3.13,3.13A3.13,3.13,0,0,0,56.77,21.48Z"/><circle class="cls-4" cx="57.19" cy="25.59" r="1.8"/><path class="cls-3" d="M27.8,40.18s1.6-6.08,5.71-5.12c2.93.68,1.81,4,1.81,4A2.5,2.5,0,0,1,38,37.55c2.93.5,1.82,5.58,1.82,5.58Z"/><path class="cls-3" d="M29.12,39.39s.79-4.72-1.8-5.7c-3.08-1.18-4.61,2.41-4.61,2.41Z"/><path class="cls-3" d="M62.18,35.44s-.63-2.93-2.35-2.69-2.24,2.69-2.24,2.69-1.21-1.76-2.94-1.36-3.06,2.51-3.29,4.39a2.56,2.56,0,0,0-2.75-1.18,2.83,2.83,0,0,0-2.22,2.07S45.26,37,43,37s-3.91,4-3.91,4l.74,2.13,18.52-3.61Z"/><path class="cls-2" d="M41.69,43.79c-13.39,0-20.14-7.36-20.42-7.68a1,1,0,0,1,.08-1.43,1,1,0,0,1,1.43.08c.06.07,6.58,7.11,19.2,7,12.77-.1,20.12-6.5,20.19-6.56a1,1,0,0,1,1.43.08,1,1,0,0,1-.08,1.43c-.32.28-8,7-21.52,7.08Z"/><circle class="cls-2" cx="50.21" cy="50.96" r="1.66"/><circle class="cls-2" cx="36.32" cy="14.93" r="1.16"/><path class="cls-2" d="M35.76,93.3h-10c0-2,2.24-3.59,5-3.59S35.76,91.32,35.76,93.3Z"/><path class="cls-2" d="M22,88.8H12c0-2,2.24-3.58,5-3.58S22,86.82,22,88.8Z"/><path class="cls-2" d="M61.63,88.8h10c0-2-2.23-3.58-5-3.58S61.63,86.83,61.63,88.8Z"/><path class="cls-2" d="M49.05,93.3h10c0-2-2.24-3.59-5-3.59S49.05,91.32,49.05,93.3Z"/><path class="cls-1" d="M68.59,59l-2,7.57a3.93,3.93,0,0,0,2-7.57Z"/><path class="cls-1" d="M15.42,59l2,7.57a3.93,3.93,0,0,1-2-7.57Z"/><rect class="cls-4" x="25.31" y="35.03" width="1.8" height="1.8" transform="translate(-17.8 42.29) rotate(-62.12)"/><rect class="cls-4" x="31.36" y="37.79" width="1.8" height="1.8" transform="translate(-14.36 57.75) rotate(-72.42)"/><path class="cls-4" d="M42,40.52a31.94,31.94,0,0,1-11.86-2.13A17.75,17.75,0,0,1,25.78,36a.29.29,0,0,1,.37-.45c.05.05,5.83,4.64,16.83,4.35,10.8-.26,16.81-5,16.87-5.1a.29.29,0,0,1,.41.05.29.29,0,0,1,0,.4c-.06,0-6.21,5-17.23,5.23Z"/><rect class="cls-4" x="36.82" y="39.01" width="1.8" height="1.8" transform="translate(-7.07 71.68) rotate(-81.96)"/><rect class="cls-4" x="42.31" y="39.34" width="1.8" height="1.8"/><rect class="cls-4" x="48.18" y="38.61" width="1.8" height="1.8" transform="translate(-5.68 8.34) rotate(-9.18)"/><rect class="cls-4" x="54.28" y="36.75" width="1.8" height="1.8" transform="matrix(0.95, -0.33, 0.33, 0.95, -9.28, 20.11)"/><rect class="cls-4" x="59.14" y="34.16" width="1.8" height="1.8" transform="translate(-9.49 34.72) rotate(-30)"/></g></g></svg>